# xmcd
#
# Track frame offsets: 
#        150
#        17025
#        39742
#        60137
#        64847
#        66132
#        87995
#        99410
#        113870
#        132772
#        137710
#        153482
#        172607
#        177832
#        183012
#        199305
#        200912
#        213857
#        229120
#        231015
#        246125
#        263012
#        277762
#
# Disc length: 3897 seconds
#
# Revision: 0
# Processed by: cddbd v1.5.2PL0 Copyright (c) Steve Scherf et al.
# Submitted via: ExactAudioCopy v1.1
#
DISCID=350f3717
DTITLE=DJ Honda - H II
DYEAR=1997
DGENRE=Hip-Hop
TTITLE0=Trouble In The Water (feat. De La Soul)
TTITLE1=Disco T-E-C (feat. Camp-Lo)
TTITLE2=Blaze It Up (feat. Black Attack)
TTITLE3=Mista Sinista Interlude
TTITLE4=Intro
TTITLE5=Team Players (feat. Doe-V and KRS-One)
TTITLE6=Answering Machine
TTITLE7=Talk About It (feat. Al 'Tariq)
TTITLE8=When You Hot You Hot (feat. No I.D. and Dug Infinite)
TTITLE9=Fat Lip Interlude
TTITLE10=For Every Day That Goes By (feat. The Rawcotiks)
TTITLE11=5 Seconds (feat. Black Attack)
TTITLE12=Example (feat. Roc Raider)
TTITLE13=Stretch Armstrong And Lord Seer Interlude
TTITLE14=Who The Trifest (feat. Beatnuts)
TTITLE15=Long Island To Japan (feat. DJ Ev)
TTITLE16=Go Crazy (feat. S-On)
TTITLE17=Around The Clock (feat. Problemz)
TTITLE18=R-Beat
TTITLE19=Somtimes I Think.... (feat. The Rawcotiks)
TTITLE20=WF II (feat. Cuban Link, Ju Ju, V.I.C., Al 'Tariq, Problemz &
TTITLE20=Black Attack)
TTITLE21=Kill The Noise (Remix) (feat. Problemz)
TTITLE22=Fuk Dat (feat. Black Attack)
EXTD=
EXTT0=
EXTT1=
EXTT2=
EXTT3=
EXTT4=
EXTT5=
EXTT6=
EXTT7=
EXTT8=
EXTT9=
EXTT10=
EXTT11=
EXTT12=
EXTT13=
EXTT14=
EXTT15=
EXTT16=
EXTT17=
EXTT18=
EXTT19=
EXTT20=
EXTT21=
EXTT22=
PLAYORDER=
